Coordinates
version=1
nRows=17
nColumns=36
inDegrees=yes

Units are S.I. units (second, meters, Newtons, ...)
If the header above contains a line with 'inDegrees', this indicates whether rotational values are in degrees (yes) or radians (no).

endheader
time	pelvis_tilt	pelvis_list	pelvis_rotation	pelvis_tx	pelvis_ty	pelvis_tz	hip_flexion_r	hip_adduction_r	hip_rotation_r	knee_angle_r	knee_angle_r_beta	ankle_angle_r	subtalar_angle_r	mtp_angle_r	hip_flexion_l	hip_adduction_l	hip_rotation_l	knee_angle_l	knee_angle_l_beta	ankle_angle_l	subtalar_angle_l	mtp_angle_l	lumbar_extension	lumbar_bending	lumbar_rotation	arm_flex_r	arm_add_r	arm_rot_r	elbow_flex_r	pro_sup_r	arm_flex_l	arm_add_l	arm_rot_l	elbow_flex_l	pro_sup_l
      1.32000000	    -26.60537919	     -3.79290895	      2.45110477	     -0.46443255	      1.25361275	     -0.59968029	     43.43385285	     -0.20062246	     -5.43155910	      6.08461025	      0.10619648	    -28.60055241	      1.14657001	     -6.38289968	     45.18569524	     -5.15931028	     -2.57007237	     11.98513747	      0.20918011	    -27.20443655	      2.73595924	     -6.38289968	    -14.60248382	      2.08443748	     -1.12364874	    -51.79964269	    -13.32231092	    -12.40404006	     50.88322769	    111.59769833	    -51.87311115	    -15.12001320	    -15.22284093	     64.66486212	    114.09221514
      1.33000000	    -26.82573594	     -3.78813987	      2.37399873	     -0.45601133	      1.23344175	     -0.59934105	     44.57631035	     -0.27387712	     -5.58010448	      6.53211498	      0.11400691	    -29.07773733	      1.68337345	     -6.51544177	     46.29194734	     -5.33073364	     -2.77436366	     12.16023780	      0.21223619	    -28.35054854	      2.83209364	     -6.51544177	    -14.96192020	      1.95194993	     -0.87813553	    -52.80685182	    -13.23794035	    -10.75353880	     50.79508709	    110.75888950	    -52.25033611	    -15.14481532	    -14.18427947	     64.77301934	    112.88294081
      1.34000000	    -26.92893967	     -3.77902327	      2.37789090	     -0.44754595	      1.21239310	     -0.59931509	     45.73434077	     -0.46213958	     -5.96981608	      7.48267614	      0.13059734	    -28.62027081	      2.37317504	     -6.71238507	     47.41273926	     -5.46048045	     -3.02806830	     12.75779458	      0.22266552	    -28.69012703	      3.26974267	     -6.71238507	    -15.45119622	      1.86086574	     -0.73089515	    -53.83062237	    -12.99492229	     -9.88117693	     50.97725253	    112.38107487	    -52.54997316	    -14.87060609	    -13.86164451	     64.94933319	    113.07175759
      1.35000000	    -26.91633931	     -3.80738581	      2.39380133	     -0.43910910	      1.19055522	     -0.59936264	     46.84771289	     -0.63746925	     -6.26283992	      8.75180560	      0.15274782	    -28.06160887	      1.96859867	     -6.74058601	     48.49374375	     -5.60270293	     -3.07574556	     13.65359716	      0.23830023	    -28.71579944	      3.50771132	     -6.74058601	    -16.08122731	      1.85997644	     -0.40905809	    -54.90982215	    -12.60295558	     -8.92944605	     51.42995568	    111.34469497	    -52.71260390	    -14.71069473	    -13.48635273	     65.38248672	    111.87988530
      1.36000000	    -26.98401252	     -3.83967672	      2.33158284	     -0.43070178	      1.16751608	     -0.59920476	     48.14563694	     -0.74617878	     -6.25225773	     10.33908894	      0.18045114	    -27.97664816	      0.31035638	     -6.81638343	     49.80739565	     -5.84402608	     -3.36344197	     14.99711384	      0.26174901	    -28.42413370	      3.88777093	     -6.81638343	    -16.56824143	      1.79241411	     -0.33670431	    -55.82680677	    -12.67237750	     -7.35539945	     51.79585521	    112.34581025	    -53.13803181	    -14.40880476	    -13.12348962	     65.75541675	    112.22742687
      1.37000000	    -26.90235315	     -3.88021206	      2.28045657	     -0.42227002	      1.14375855	     -0.59899542	     49.41456674	     -0.86854373	     -6.31787929	     12.31525308	      0.21494171	    -28.32110100	     -1.42694624	     -6.89601666	     51.02684397	     -6.09633857	     -3.57473597	     16.56498149	      0.28911347	    -28.45610795	      3.97291313	     -6.89601666	    -17.24070989	      1.78091574	     -0.06626804	    -56.76188239	    -12.43266852	     -6.14597212	     52.30395999	    113.12357206	    -53.33598831	    -14.24668114	    -12.79518919	     66.14706544	    112.66040776
      1.38000000	    -26.77041708	     -3.85529367	      2.23786390	     -0.41389186	      1.11910543	     -0.59881811	     50.74384386	     -1.05288138	     -6.32994437	     14.66970267	      0.25603461	    -28.81126819	     -3.40075361	     -6.93311837	     52.27634787	     -6.29290006	     -3.78249059	     18.46205244	      0.32222360	    -28.52070971	      3.71232377	     -6.93311837	    -17.95576893	      1.71133518	      0.15284125	    -57.60667340	    -12.18526282	     -4.77151785	     52.88232304	    112.51886185	    -53.51164015	    -14.04861147	    -12.46221543	     66.66845251	    111.98507222
      1.39000000	    -26.35241849	     -3.84570304	      2.27540574	     -0.40529215	      1.09398819	     -0.59896538	     51.87915074	     -1.39114272	     -6.86081814	     17.50188934	      0.30546559	    -28.16352186	     -4.30811431	     -6.96309274	     53.31361694	     -6.50333242	     -4.13937335	     20.68804261	      0.36107446	    -28.09216797	      3.54902613	     -6.96309274	    -19.02864656	      1.73417143	      0.42678779	    -58.37536476	    -11.68227723	     -3.90375257	     53.40166117	    111.18131583	    -53.48052903	    -13.81060398	    -12.23839580	     67.22663685	    110.68100014
      1.40000000	    -26.09107414	     -3.84832875	      2.23274164	     -0.39684001	      1.06741262	     -0.59867309	     53.14265326	     -1.53726537	     -6.69164682	     20.16505874	      0.35194667	    -29.02169247	     -6.84755406	     -6.99939243	     54.68184150	     -6.83880126	     -4.57031055	     23.19439648	      0.40481859	    -28.28126655	      3.39118057	     -6.99939243	    -19.85054818	      1.63149661	      0.50228837	    -58.94522652	    -11.51822516	     -2.74971026	     53.63406334	    112.89986792	    -53.71256241	    -13.39730202	    -12.34141998	     67.60474259	    112.81214580
      1.41000000	    -25.71473985	     -3.82879197	      2.27807464	     -0.38823362	      1.04000865	     -0.59882538	     54.28215427	     -1.90623813	     -6.85203653	     22.77388699	      0.39747931	    -29.51957611	     -6.98915696	     -7.04127226	     55.91244486	     -7.07750293	     -5.04313425	     25.72973186	      0.44906854	    -29.01055170	      2.73991307	     -7.04127226	    -20.78966047	      1.57671141	      0.71255161	    -59.54318547	    -11.01833655	     -2.22429933	     53.88002454	    113.33895772	    -53.66559583	    -13.10471030	    -12.14755981	     67.95597970	    113.68891977
      1.42000000	    -25.37649908	     -3.79080716	      2.42922004	     -0.37987129	      1.01190194	     -0.59917256	     55.47657410	     -2.42653312	     -7.15859306	     25.96780774	      0.45322374	    -27.75348639	     -6.71529233	     -7.07633147	     57.29294429	     -7.28182448	     -5.61628265	     29.39224625	      0.51299147	    -26.37559858	      1.64355403	     -7.07633147	    -21.73579502	      1.52436552	      0.80292352	    -59.89330892	    -10.46000740	     -1.66743717	     54.10774365	    110.82213445	    -53.46920240	    -12.75787763	    -11.78962890	     68.46128193	    111.26405559
      1.43000000	    -25.50809756	     -3.87728838	      2.56496698	     -0.37236410	      0.98208577	     -0.59920082	     57.54194098	     -2.82958127	     -7.28318178	     31.32595522	      0.54674106	    -19.19357057	     -6.86755379	     -7.15310383	     59.73799879	     -7.71429177	     -5.90644482	     35.65689146	      0.62233016	    -16.20333136	      1.41092826	     -7.15310383	    -22.07645777	      1.56714717	      0.87896528	    -60.14295105	     -9.95063888	     -1.27822091	     54.02241377	    112.56203208	    -53.36548801	    -12.39755967	    -11.99750673	     68.69506358	    114.21379991
      1.44000000	    -25.31696924	     -3.95086863	      2.74069378	     -0.36516579	      0.95233959	     -0.59923923	     59.77162933	     -3.28931941	     -7.66323304	     38.61233628	      0.67391240	     -6.00457505	     -7.12947685	     -7.23051067	     62.19158635	     -8.29879762	     -6.23275183	     43.17206967	      0.75349476	     -3.04781221	      2.33037162	     -7.23051067	    -22.90226653	      1.68911165	      0.99875657	    -60.16700146	     -9.34530446	     -0.98826860	     54.06743133	    112.31537872	    -52.88407154	    -12.09501393	    -11.89145853	     68.98840057	    114.23326739
      1.45000000	    -25.18940005	     -3.96028364	      2.82908030	     -0.35918864	      0.92297686	     -0.59912962	     62.39077861	     -3.68122050	     -8.02587908	     45.75694804	      0.79860940	      5.31963913	     -7.45755095	     -7.26599133	     64.80483426	     -8.96519869	     -6.74083431	     50.02330518	      0.87307138	      7.15224919	      3.23142546	     -7.26599133	    -23.85200832	      1.71290906	      1.12166448	    -59.72143723	     -8.82639881	     -0.61796991	     53.95605787	    111.86278232	    -52.06140772	    -11.74857447	    -11.75460345	     69.11881665	    114.16779848
      1.46000000	    -25.90024403	     -3.86565761	      2.81008526	     -0.35545997	      0.89422763	     -0.59901678	     66.07433556	     -4.06500870	     -8.39202497	     51.73883451	      0.90301301	     11.00188549	    -10.50630439	     -7.27698842	     68.25160970	     -9.45170381	     -7.37251509	     55.56252125	      0.96974894	     12.34099805	      1.53309141	     -7.27698842	    -24.15421156	      1.59489518	      1.30417500	    -58.62389417	     -8.29610299	     -0.01383753	     53.43854774	    110.70473382	    -50.57148815	    -11.47717469	    -11.45546896	     68.87692359	    112.98789702
      1.47000000	    -27.28403272	     -3.65952511	      2.75540951	     -0.35271867	      0.86699299	     -0.59877612	     70.69633975	     -4.68152062	     -8.57993117	     57.67095992	      1.00654813	     15.75789355	    -10.52187182	     -7.28316746	     72.48200191	     -9.98476945	     -7.91753840	     60.88790769	      1.06269446	     16.78132823	      2.64848055	     -7.28316746	    -23.92815400	      1.25244958	      1.34495243	    -56.52442154	     -8.00092376	      1.20248635	     51.91084324	    111.98633985	    -48.52406944	    -11.10468230	    -11.79049760	     68.00335115	    113.83725425
      1.48000000	    -28.36428068	     -3.88634152	      2.69587342	     -0.34962236	      0.84349230	     -0.59805129	     74.93164833	     -4.82008820	     -8.35243774	     63.41251124	      1.10675711	     17.79741133	    -11.79038565	     -7.28831249	     76.76962236	    -10.66996540	     -7.34926909	     66.41611144	      1.15917982	     18.55687743	      2.22753373	     -7.28831249	    -24.30686693	      1.38596613	      1.64485226	    -53.64748663	     -7.55814487	      1.99280553	     50.24717160	    112.14470521	    -45.49067536	    -10.70115161	    -12.22697741	     66.60352341	    113.61439221
